<mxfile host="app.diagrams.net" modified="2023-05-21T18:18:28.221Z" agent="Mozilla/5.0 (Windows NT 10.0; Win64; x64) AppleWebKit/537.36 (KHTML, like Gecko) Chrome/113.0.0.0 Safari/537.36" etag="xbnZaWKtlMrIsKjjKGn6" version="21.3.2" type="device">
  <diagram name="Страница 1" id="5YetUEDRyZxwBw8eWc0t">
    <mxGraphModel dx="2074" dy="1148" grid="1" gridSize="10" guides="1" tooltips="1" connect="1" arrows="1" fold="1" page="1" pageScale="1" pageWidth="827" pageHeight="1169" math="0" shadow="0">
      <root>
        <mxCell id="0" />
        <mxCell id="1" parent="0" />
        <mxCell id="I4P1pSYA7J7MU2GdGleR-3" style="edgeStyle=orthogonalEdgeStyle;rounded=0;orthogonalLoop=1;jettySize=auto;html=1;entryX=0.5;entryY=0;entryDx=0;entryDy=0;" edge="1" parent="1" source="I4P1pSYA7J7MU2GdGleR-1" target="I4P1pSYA7J7MU2GdGleR-2">
          <mxGeometry relative="1" as="geometry" />
        </mxCell>
        <mxCell id="I4P1pSYA7J7MU2GdGleR-1" value="Начало&lt;br&gt;printArray" style="ellipse;whiteSpace=wrap;html=1;" vertex="1" parent="1">
          <mxGeometry x="354" y="10" width="120" height="80" as="geometry" />
        </mxCell>
        <mxCell id="I4P1pSYA7J7MU2GdGleR-5" style="edgeStyle=orthogonalEdgeStyle;rounded=0;orthogonalLoop=1;jettySize=auto;html=1;entryX=0.5;entryY=0;entryDx=0;entryDy=0;" edge="1" parent="1" source="I4P1pSYA7J7MU2GdGleR-2" target="I4P1pSYA7J7MU2GdGleR-4">
          <mxGeometry relative="1" as="geometry" />
        </mxCell>
        <mxCell id="I4P1pSYA7J7MU2GdGleR-8" style="edgeStyle=orthogonalEdgeStyle;rounded=0;orthogonalLoop=1;jettySize=auto;html=1;entryX=0.5;entryY=0;entryDx=0;entryDy=0;" edge="1" parent="1" source="I4P1pSYA7J7MU2GdGleR-2" target="I4P1pSYA7J7MU2GdGleR-7">
          <mxGeometry relative="1" as="geometry">
            <mxPoint x="410" y="290" as="targetPoint" />
            <Array as="points">
              <mxPoint x="501" y="150" />
              <mxPoint x="501" y="290" />
              <mxPoint x="414" y="290" />
            </Array>
          </mxGeometry>
        </mxCell>
        <mxCell id="I4P1pSYA7J7MU2GdGleR-2" value="&lt;div style=&quot;font-size: 14px; line-height: 19px;&quot;&gt;&lt;span style=&quot;background-color: rgb(255, 255, 255);&quot;&gt;i = 0; i &amp;lt; amountOfElements; i++&lt;/span&gt;&lt;/div&gt;" style="shape=hexagon;perimeter=hexagonPerimeter2;whiteSpace=wrap;html=1;fixedSize=1;" vertex="1" parent="1">
          <mxGeometry x="354" y="110" width="120" height="80" as="geometry" />
        </mxCell>
        <mxCell id="I4P1pSYA7J7MU2GdGleR-6" style="edgeStyle=orthogonalEdgeStyle;rounded=0;orthogonalLoop=1;jettySize=auto;html=1;entryX=0;entryY=0.5;entryDx=0;entryDy=0;" edge="1" parent="1" source="I4P1pSYA7J7MU2GdGleR-4" target="I4P1pSYA7J7MU2GdGleR-2">
          <mxGeometry relative="1" as="geometry">
            <mxPoint x="330" y="140" as="targetPoint" />
            <Array as="points">
              <mxPoint x="331" y="240" />
              <mxPoint x="331" y="150" />
            </Array>
          </mxGeometry>
        </mxCell>
        <mxCell id="I4P1pSYA7J7MU2GdGleR-4" value="&lt;div style=&quot;font-size: 14px; line-height: 19px;&quot;&gt;&lt;span style=&quot;background-color: rgb(255, 255, 255);&quot;&gt;array[i]&lt;/span&gt;&lt;/div&gt;" style="shape=parallelogram;perimeter=parallelogramPerimeter;whiteSpace=wrap;html=1;fixedSize=1;" vertex="1" parent="1">
          <mxGeometry x="354" y="210" width="120" height="60" as="geometry" />
        </mxCell>
        <mxCell id="I4P1pSYA7J7MU2GdGleR-7" value="Конец" style="ellipse;whiteSpace=wrap;html=1;" vertex="1" parent="1">
          <mxGeometry x="354" y="300" width="120" height="80" as="geometry" />
        </mxCell>
      </root>
    </mxGraphModel>
  </diagram>
</mxfile>
